# AST/ASF file generated using VICON BodyLanguage
# -----------------------------------------------
:version 1.10
:name VICON
:units
  mass 1.0
  length 0.45
  angle deg
:documentation
   .ast/.asf automatically generated from VICON data using
   VICON BodyBuilder and BodyLanguage model FoxedUp or BRILLIANT.MOD
:root
   order TX TY TZ RX RY RZ
   axis XYZ
   position 0 0 0  
   orientation 0 0 0 
:bonedata
  begin
     id 1 
     name lhipjoint
     direction 0.535335 -0.74333 0.401095 
     length 2.04549 
     axis 0 0 0  XYZ
  end
  begin
     id 2 
     name lfemur
     direction 0.34202 -0.939693 0  
     length 6.95643  
     axis 0 0 20  XYZ
    dof rx ry rz
    limits (-160.0 20.0)
           (-70.0 70.0)
           (-60.0 70.0)
  end
  begin
     id 3 
     name ltibia
     direction 0.34192 -0.939729 0   
     length 5.55969   
     axis 0 0 20   XYZ
    dof rx
    limits (-10.0 170.0)
  end
  begin
     id 4 
     name lfoot
     direction 0.216943 -0.596046 0.773088   
     length 2.27918   
     axis -90 7.62852e-016 20   XYZ
    dof rx rz
    limits (-45.0 90.0)
           (-70.0 20.0)
  end
  begin
     id 5 
     name ltoes
     direction 1.53519e-011 -4.21748e-011 1   
     length 1.05562   
     axis -90 7.62852e-016 20   XYZ
    dof rx
    limits (-90.0 20.0)
  end
  begin
     id 6 
     name rhipjoint
     direction -0.576368 -0.719173 0.38806   
     length 2.1142  
     axis 0 0 0  XYZ 
  end
  begin
     id 7 
     name rfemur
     direction -0.34202 -0.939693 0   
     length 7.07928   
     axis 0 0 -20   XYZ
    dof rx ry rz
    limits (-160.0 20.0)
           (-70.0 70.0)
           (-70.0 60.0)
  end
  begin
     id 8 
     name rtibia
     direction -0.34202 -0.939693 0   
     length 5.79974   
     axis 0 0 -20   XYZ
    dof rx
    limits (-10.0 170.0)
 end
 begin
     id 9 
     name rfoot
     direction -0.189288 -0.520065 0.832888   
     length 2.42173  
     axis -90 -7.62852e-016 -20   XYZ
    dof rx rz
    limits (-45.0 90.0)
           (-20.0 70.0)
  end
  begin
     id 10 
     name rtoes
     direction -1.53574e-011 -4.21658e-011 1   
     length 1.14469   
     axis -90 -7.62852e-016 -20   XYZ
    dof rx
    limits (-90.0 20.0)
  end
  begin
     id 11 
     name lowerback
     direction -0.00135702 0.993803 0.111144   
     length 1.91308   
     axis 0 0 0   XYZ
    dof rx ry rz
    limits (-20.0 45.0)
           (-30.0 30.0)
           (-30.0 30.0)
  end
  begin
     id 12 
     name upperback
     direction -0.0056745 0.999813 0.0184631   
     length 1.9212   
     axis 0 0 0   XYZ
    dof rx ry rz
    limits (-20.0 45.0)
           (-30.0 30.0)
           (-30.0 30.0)
  end
  begin
     id 13 
     name thorax
     direction -0.00733434 0.999426 -0.0330788   
     length 1.94196   
     axis 0 0 0   XYZ
    dof rx ry rz
    limits (-20.0 45.0)
           (-30.0 30.0)
           (-30.0 30.0)
  end
  begin
     id 14 
     name lowerneck
     direction 0.0563074 0.996944 -0.0541571   
     length 2.34257   
     axis 0 0 0   XYZ
    dof rx ry rz
    limits (-20.0 45.0)
           (-30.0 30.0)
           (-30.0 30.0)
  end
  begin
     id 15 
     name upperneck
     direction -0.0544519 0.976166 -0.210085   
     length 2.32506   
     axis 0 0 0   XYZ
    dof rx ry rz
    limits (-20.0 45.0)
           (-30.0 30.0)
           (-30.0 30.0)
  end
  begin
     id 16
     name head
     direction -0.0226035 0.997615 -0.0652205  
     length 2.3648  
     axis 0 0 0   XYZ
    dof rx ry rz
    limits (-20.0 45.0)
           (-30.0 30.0)
           (-30.0 30.0)
  end
  begin
     id 17 
     name lclavicle
     direction 0.92109 0.381297 -0.0787716  
     length 4.0487  
     axis 0 0 0   XYZ
    dof ry rz
    limits (-20.0 10.0)
           (0.0 20.0)
  end
  begin
     id 18 
     name lhumerus
     direction 1 -4.48986e-011 3.56724e-027   
     length 4.94991   
     axis 180 -30 -90   XYZ
    dof rx ry rz
    limits (-60.0 90.0)
           (-90.0 90.0)
           (-90.0 90.0)
  end
  begin
     id 19
     name lradius
     direction 1 -4.48981e-011 8.62147e-027   
     length 2.7606   
     axis 180 -30 -90   XYZ
    dof rx
    limits (-10.0 170.0)
  end
  begin
     id 20
     name lwrist
     direction 1 -4.48989e-011 1.59799e-026   
     length 1.3803   
     axis -1.17785e-014 90 90   XYZ
    dof ry
    limits (-180.0 0.0)
 end
  begin
     id 21 
     name lhand
     direction 1 -4.48896e-011 3.19599e-026   
     length 0.843936   
     axis -2.03931e-014 90 90   XYZ
    dof rx rz
    limits (-90.0 90.0)
           (-45.0 45.0)
  end
  begin
     id 22 
     name lfingers
     direction 1 -4.48887e-011 6.39197e-026   
     length 0.680403   
     axis -4.07862e-014 90 90   XYZ
    dof rx
    limits (0.0 90.0)
  end
  begin
     id 23
     name lthumb
     direction 0.707107 -6.348e-011 0.707107   
     length 0.976926   
     axis -90 45 2.85299e-015   XYZ
    dof rx rz
    limits (-45.0 45.0)
           (-45.0 45.0)
  end
  begin
     id 24 
     name rclavicle
     direction -0.951104 0.307692 -0.026953   
     length 4.21801  
     axis 0 0 0   XYZ 
    dof ry rz
    limits (-10.0 20.0)
           (-20.0 0.0)
  end
  begin
     id 25 
     name rhumerus
     direction -1 -4.4896e-011 -1.8171e-018  
     length 4.32982   
     axis 180 30 90   XYZ
    dof rx ry rz
    limits (-90.0 60.0)
           (-90.0 90.0)
           (-90.0 90.0)
  end
  begin
     id 26 
     name rradius
     direction -1 -4.48959e-011 8.25165e-027   
     length 3.20057   
     axis 180 30 90   XYZ
    dof rx
    limits (-10.0 170.0)
  end
  begin
     id 27 
     name rwrist
     direction -1 -4.48997e-011 1.59799e-026   
     length 1.60029   
     axis -1.17785e-014 -90 -90   XYZ
    dof ry
    limits (-180.0 0.0)
  end
  begin
     id 28
     name rhand
     direction -1 -4.49023e-011 3.19599e-026   
     length 0.960433   
     axis -2.03931e-014 -90 -90   XYZ
    dof rx rz
    limits (-90.0 90.0)
           (-45.0 45.0)
  end
  begin
     id 29
     name rfingers
     direction -1 -4.48802e-011 6.39197e-026   
     length 0.774326   
     axis -4.07862e-014 -90 -90   XYZ
    dof rx
    limits (0.0 90.0)
  end
  begin
     id 30
     name rthumb
     direction -0.707107 -6.34876e-011 0.707107   
     length 1.11178   
     axis -90 -45 -2.85299e-015   XYZ
    dof rx rz
    limits (-45.0 45.0)
           (-45.0 45.0)
  end
:hierarchy
  begin
    root lhipjoint rhipjoint lowerback
    lhipjoint lfemur
    lfemur ltibia
    ltibia lfoot
    lfoot ltoes
    rhipjoint rfemur
    rfemur rtibia
    rtibia rfoot
    rfoot rtoes
    lowerback upperback
    upperback thorax
    thorax lowerneck lclavicle rclavicle
    lowerneck upperneck
    upperneck head
    lclavicle lhumerus
    lhumerus lradius
    lradius lwrist
    lwrist lhand lthumb
    lhand lfingers
    rclavicle rhumerus
    rhumerus rradius
    rradius rwrist
    rwrist rhand rthumb
    rhand rfingers
end

#!OML:ASF C:\KaitlinTest1\Natural Motions\Nikki\Session 2\Nikki.ASF
:FULLY-SPECIFIED
:DEGREES
165
root -18.8548 16.6289 5.02063 -153.522 85.7706 -163.494
lowerback -13.4172 -1.72692 -0.13297
upperback -4.00865 -2.06293 -0.524019
thorax 3.28544 -0.946507 -0.79609
lowerneck -1.89099 1.61988 8.48818
upperneck 27.2673 3.8538 -5.51793
head 9.07764 2.54828 -2.9835
rclavicle -5.51627e-015 -1.19271e-014
rhumerus -42.1833 -22.6854 -78.7262
rradius 18.0978
rwrist 29.5506
rhand -35.8587 3.13629
rfingers 7.12502
rthumb -8.9735 -26.6529
lclavicle -5.51627e-015 -1.19271e-014
lhumerus -41.9977 15.8622 80.6094
lradius 24.0381
lwrist -39.8953
lhand -32.9444 3.47704
lfingers 7.12502
lthumb -6.16051 33.3675
rfemur -7.44515 -16.4697 20.9411
rtibia 10.7094
rfoot -10.5073 11.6737
rtoes -2.70347e-014
lfemur -10.0001 11.9654 -17.9279
ltibia 10.021
lfoot -2.38511 -16.6558
ltoes -4.13472e-014
166
root -18.8556 16.629 5.02017 -153.523 85.7728 -163.489
lowerback -13.406 -1.73115 -0.124499
upperback -4.01695 -2.06936 -0.526386
thorax 3.27024 -0.949646 -0.803837
lowerneck -1.85774 1.62469 8.50088
upperneck 27.2536 3.8665 -5.53546
head 9.06812 2.55442 -2.9909
rclavicle 1.2921e-015 1.19271e-015
rhumerus -42.2005 -22.6494 -78.7537
rradius 18.1098
rwrist 29.5378
rhand -35.8603 3.06146
rfingers 7.12502
rthumb -8.975 -26.7276
lclavicle 1.2921e-015 1.19271e-015
lhumerus -42.0187 15.8458 80.606
lradius 24.0479
lwrist -39.8782
lhand -32.9335 3.51018
lfingers 7.12502
lthumb -6.14998 33.4009
rfemur -7.44987 -16.4748 20.9402
rtibia 10.719
rfoot -10.5455 11.6814
rtoes -1.35174e-014
lfemur -9.98797 11.9644 -17.9295
ltibia 10.0019
lfoot -2.38405 -16.6697
ltoes 1.59028e-014
167
root -18.8555 16.6298 5.02014 -153.628 85.7825 -163.593
lowerback -13.4096 -1.73193 -0.140814
upperback -4.02412 -2.06814 -0.519628
thorax 3.26553 -0.948901 -0.787381
lowerneck -1.81904 1.62423 8.45728
upperneck 27.2275 3.86205 -5.49392
head 9.04987 2.55219 -2.96932
rclavicle 1.30452e-014 1.19271e-015
rhumerus -42.2031 -22.7215 -78.6831
rradius 18.0693
rwrist 29.6649
rhand -35.8709 3.14006
rfingers 7.12502
rthumb -8.98519 -26.6486
lclavicle 1.30452e-014 1.19271e-015
lhumerus -42.03 15.9185 80.585
lradius 24.0161
lwrist -39.894
lhand -32.9424 3.4489
lfingers 7.12502
lthumb -6.15861 33.3394
rfemur -7.45091 -16.4642 20.9227
rtibia 10.726
rfoot -10.5131 11.6814
rtoes -7.87187e-014
lfemur -9.97728 11.9887 -17.9414
ltibia 10.0024
lfoot -2.38646 -16.6966
ltoes -3.81667e-014
168
root -18.8561 16.6296 5.01964 -153.528 85.7792 -163.493
lowerback -13.3994 -1.72918 -0.125318
upperback -4.0416 -2.06589 -0.520634
thorax 3.24115 -0.94757 -0.79613
lowerneck -1.81313 1.61286 8.47402
upperneck 27.2652 3.85326 -5.50875
head 9.06192 2.55015 -2.97852
rclavicle 3.50109e-014 1.70955e-014
rhumerus -42.227 -22.6202 -78.7484
rradius 18.1126
rwrist 29.5827
rhand -35.8722 3.06385
rfingers 7.12502
rthumb -8.98652 -26.7247
lclavicle 3.50109e-014 1.70955e-014
lhumerus -42.0216 15.7624 80.7169
lradius 23.99
lwrist -39.4723
lhand -33.1548 3.51149
lfingers 7.12502
lthumb -6.36368 33.3959
rfemur -7.46931 -16.4688 20.9295
rtibia 10.7628
rfoot -10.5415 11.685
rtoes 7.31528e-014
lfemur -9.97944 11.9863 -17.9363
ltibia 9.98125
lfoot -2.35793 -16.7016
ltoes 2.06736e-014
